<?xml version="1.0" standalone="no"?>
<!DOCTYPE svg PUBLIC "-//W3C//DTD SVG 20010904//EN"
 "http://www.w3.org/TR/2001/REC-SVG-20010904/DTD/svg10.dtd">
<svg version="1.0" xmlns="http://www.w3.org/2000/svg"
 width="170.000000pt" height="150.000000pt" viewBox="0 0 1400 700"
 preserveAspectRatio="xMidYMid meet">

<g transform="translate(0.000000,1000.000000) scale(0.100000,-0.100000)"
fill="#000000" stroke="none">
<path d="M5740 8106 c0 -2 20 -14 45 -26 43 -21 125 -102 125 -123 0 -6 -15 3
-32 19 -81 74 -191 124 -229 103 -15 -8 -19 -21 -19 -67 l0 -57 83 -38 c135
-63 338 -178 404 -229 34 -27 65 -48 68 -48 3 0 5 33 5 73 0 69 -2 75 -32 104
-18 17 -79 55 -136 84 -78 41 -98 55 -86 62 15 8 22 4 114 -57 8 -6 3 3 -12
20 -16 17 -28 35 -28 41 0 15 -198 129 -237 137 -18 3 -33 4 -33 2z m59 -120
c44 -28 71 -53 71 -67 0 -16 -24 -10 -77 21 -41 24 -50 33 -46 50 7 25 5 25
52 -4z m241 -141 c55 -33 76 -56 63 -69 -6 -6 -74 27 -115 56 -16 11 -25 25
-21 33 7 20 7 20 73 -20z"/>
<path d="M5438 8088 c-44 -36 -17 -77 54 -85 58 -6 100 10 96 38 -6 44 -113
76 -150 47z m119 -23 c24 -16 24 -17 7 -36 -28 -31 -117 -20 -131 17 -16 43
68 55 124 19z"/>
<path d="M5455 8060 c-9 -15 -7 -16 34 -25 26 -5 32 -4 26 5 -6 10 -1 11 21 6
20 -5 26 -4 19 3 -16 16 -91 25 -100 11z"/>
<path d="M5243 7811 c-17 -11 -34 -30 -38 -43 -4 -13 -25 -46 -46 -74 -22 -28
-39 -54 -39 -59 0 -4 -23 -38 -50 -76 -28 -38 -48 -69 -46 -69 2 0 23 16 46
35 61 51 294 203 353 231 29 13 67 27 85 30 74 14 19 29 -148 40 -74 5 -89 3
-117 -15z"/>
<path d="M812 7676 c-79 -58 -115 -133 -128 -267 -3 -35 -12 -81 -20 -104 -7
-22 -13 -56 -12 -75 l1 -35 4 33 c3 20 13 38 29 48 13 9 24 23 24 30 0 8 5 14
11 14 19 0 2 -78 -31 -146 -30 -60 -40 -111 -20 -99 6 3 10 18 11 33 l1 27 8
-26 c9 -33 -6 -126 -26 -157 -12 -18 -13 -30 -5 -55 13 -39 0 -131 -27 -202
-11 -28 -27 -92 -36 -142 -9 -50 -25 -116 -37 -145 -12 -29 -37 -98 -55 -153
-19 -55 -49 -133 -67 -173 -27 -61 -37 -74 -59 -79 -26 -5 -40 -23 -19 -23 6
0 6 -12 1 -29 -10 -36 -6 -41 36 -41 18 0 40 -3 49 -7 14 -5 10 -9 -16 -18
-19 -6 -33 -17 -31 -24 1 -7 -11 -35 -29 -62 -32 -51 -79 -176 -79 -213 0 -11
-8 -26 -19 -33 -18 -11 -27 -63 -11 -63 5 0 6 -8 3 -19 -4 -16 4 -19 67 -25
107 -11 131 -25 45 -25 -60 -1 -71 -4 -71 -18 -17 -369 -19 -573 -9 -853 6
-203 13 -270 26 -270 5 0 5 -7 2 -17 -4 -10 -2 -14 4 -10 20 13 62 -48 79
-113 9 -36 20 -73 25 -82 10 -18 -5 -26 -15 -9 -3 5 -15 11 -26 14 -16 4 -19
2 -11 -6 7 -9 -3 -12 -40 -11 -27 0 -49 -1 -49 -2 0 -11 194 -57 330 -79 91
-14 185 -33 210 -40 25 -8 113 -19 195 -25 83 -6 188 -15 235 -20 203 -24 365
-40 505 -50 259 -19 593 -50 646 -60 60 -12 275 -12 334 -1 l40 7 -40 7 c-72
13 -74 19 -36 89 132 243 380 536 651 769 63 54 311 240 435 327 58 40 115 55
115 31 0 -5 4 -8 10 -4 5 3 31 -1 57 -9 26 -8 80 -24 120 -35 40 -12 78 -29
85 -39 7 -9 29 -18 48 -20 32 -2 88 -20 132 -43 9 -5 36 -12 60 -15 24 -4 55
-15 69 -25 15 -10 49 -21 78 -24 47 -4 88 -20 101 -37 4 -4 24 -9 45 -12 61
-6 93 -16 99 -33 3 -8 10 -12 16 -8 12 8 93 -15 102 -30 5 -7 8 -6 8 2 0 6 9
9 20 6 12 -3 29 2 40 12 17 15 20 31 20 106 0 51 -4 91 -11 94 -5 4 -15 19
-21 33 -11 30 -38 139 -39 162 -1 8 -7 36 -14 61 l-13 46 27 -5 c14 -2 33 -10
41 -17 8 -7 25 -16 37 -19 13 -4 23 -12 23 -17 0 -5 7 -9 16 -9 18 0 172 -99
193 -123 7 -10 19 -17 25 -17 6 0 29 -17 51 -38 22 -21 55 -44 73 -50 35 -12
92 -52 74 -52 -6 0 -13 -19 -17 -42 -4 -24 -12 -52 -18 -63 -6 -11 -10 -27 -9
-36 2 -8 -4 -29 -13 -45 -8 -16 -15 -35 -15 -41 0 -7 -4 -13 -10 -13 -5 0 -10
-5 -10 -11 0 -14 -46 -125 -67 -159 -8 -14 -17 -33 -20 -42 -3 -10 -9 -18 -14
-18 -5 0 -9 -13 -9 -29 0 -16 -7 -36 -15 -45 -8 -8 -15 -21 -15 -28 0 -7 -6
-23 -14 -34 -8 -11 -25 -45 -36 -75 -12 -30 -31 -76 -42 -103 -13 -34 -16 -51
-8 -56 6 -4 12 -25 13 -48 1 -25 4 -36 9 -29 6 9 11 8 21 -4 8 -11 24 -14 52
-11 22 2 48 4 58 5 9 1 17 6 17 11 0 5 3 7 6 3 4 -3 23 5 43 18 19 14 40 25
45 25 5 0 30 15 56 34 26 18 61 37 78 41 18 3 32 10 32 15 0 5 16 14 35 20 19
6 38 17 42 23 9 14 63 50 63 42 0 -2 21 8 48 23 26 16 61 33 78 39 17 6 51 25
74 42 24 17 49 31 56 31 7 0 14 3 16 8 5 11 58 47 103 69 22 11 54 27 70 36
59 30 142 67 150 67 5 0 16 -6 24 -13 9 -7 33 -19 54 -26 21 -7 66 -29 100
-48 34 -20 76 -44 92 -52 17 -9 37 -21 45 -26 8 -5 17 -10 20 -10 8 -1 224
-104 240 -115 28 -18 105 -53 168 -75 34 -13 78 -33 98 -44 19 -12 40 -21 45
-21 6 0 34 -11 63 -25 79 -37 165 -65 202 -65 49 0 98 50 90 91 -3 19 -2 28 4
24 20 -12 9 7 -17 31 -27 25 -46 50 -158 209 -31 44 -76 107 -100 140 -47 64
-81 114 -181 268 -49 76 -63 104 -58 123 3 13 11 24 16 24 6 0 8 7 5 15 -4 8
5 22 21 33 38 28 140 82 153 82 6 0 24 11 41 25 16 14 38 25 48 25 10 0 22 5
25 10 8 14 100 60 119 60 7 0 44 20 80 45 37 25 71 43 76 40 6 -3 10 1 10 9 0
9 7 16 15 16 8 0 20 9 27 20 7 11 18 20 24 20 6 0 14 18 18 39 3 22 9 46 12
55 4 10 -5 22 -28 35 -18 11 -38 25 -45 30 -7 6 -14 7 -17 3 -4 -8 -122 3
-311 28 -184 24 -388 50 -510 66 -71 8 -137 17 -147 18 -16 2 -108 164 -108
192 0 8 -5 14 -11 14 -5 0 -30 44 -55 98 -24 53 -49 104 -54 112 -6 8 -51 97
-102 198 -101 203 -125 232 -194 232 -44 0 -84 -36 -84 -77 0 -12 -4 -23 -9
-23 -5 0 -14 -19 -19 -42 -10 -42 -46 -153 -62 -193 -5 -11 -12 -31 -16 -45
-5 -21 -47 -116 -75 -172 -5 -10 -9 -28 -9 -41 0 -13 -6 -35 -12 -50 -11 -23
-19 -27 -57 -27 -24 0 -60 4 -80 10 -20 5 -94 24 -166 41 -255 60 -380 92
-402 102 -20 9 -36 35 -38 61 0 5 -8 12 -18 15 -14 5 3 27 90 112 59 58 146
140 193 184 47 43 147 139 223 213 75 74 137 132 137 129 0 -3 37 33 82 80
l83 85 63 -6 c34 -3 68 -10 75 -16 6 -6 34 -25 61 -43 27 -18 81 -53 120 -79
39 -27 80 -53 91 -58 11 -6 36 -22 55 -35 19 -13 50 -35 68 -47 30 -21 75 -54
127 -93 112 -85 243 -179 269 -192 17 -9 45 -27 62 -39 17 -13 36 -24 41 -24
6 0 16 -7 23 -15 7 -8 19 -15 27 -15 8 0 42 -13 76 -29 34 -16 85 -34 112 -41
28 -6 61 -16 75 -20 14 -5 53 -14 88 -21 34 -7 62 -16 62 -19 0 -3 21 -5 47
-5 27 1 51 -3 54 -8 4 -5 29 -11 55 -13 27 -1 63 -6 79 -10 17 -4 38 -7 48 -8
11 0 15 -6 12 -14 -4 -10 0 -12 10 -8 9 3 28 -2 43 -12 18 -11 23 -12 18 -3
-6 9 -5 12 5 9 8 -3 13 -11 11 -17 -1 -7 3 -11 10 -10 15 2 30 -3 108 -38 50
-23 198 -109 210 -123 3 -3 30 -23 60 -45 30 -22 89 -66 130 -99 41 -33 100
-75 130 -94 30 -20 61 -42 68 -49 7 -7 20 -13 28 -13 8 0 14 -3 14 -8 0 -4 12
-20 26 -35 33 -36 32 -41 -45 -245 -179 -478 -273 -611 -792 -1132 -175 -176
-291 -307 -404 -458 -21 -28 -43 -52 -48 -52 -21 0 6 -18 35 -24 121 -22 724
-63 1043 -71 138 -3 333 -10 435 -15 102 -6 266 -15 365 -20 633 -34 1439 -36
1765 -6 550 52 490 46 860 96 434 58 691 97 720 108 8 3 23 4 33 3 27 -4 158
18 367 60 360 72 591 123 627 140 23 10 46 19 50 19 5 0 14 5 20 11 9 9 7 16
-7 28 -10 9 -32 61 -48 116 -16 55 -46 145 -66 200 -61 164 -64 175 -54 175 5
0 7 4 4 9 -4 5 -3 11 2 13 4 1 5 17 1 33 l-6 30 -10 -24 c-14 -34 -27 -10 -25
44 2 29 0 36 -7 25 -6 -8 -19 -15 -30 -16 -17 -1 -19 3 -14 26 6 33 -12 48
-35 28 -44 -37 -230 -102 -422 -147 -454 -107 -1328 -174 -2285 -175 -365 0
-412 2 -542 22 -286 45 -431 132 -496 299 -31 80 -43 198 -27 269 6 27 14 76
16 109 10 108 22 173 38 198 25 36 53 30 461 -98 61 -20 146 -40 190 -45 44
-6 95 -13 113 -16 38 -7 148 13 177 33 11 7 29 13 40 14 18 0 68 53 139 145
18 24 28 94 14 94 -5 0 -8 10 -8 21 0 18 -5 21 -30 17 -26 -4 -30 -1 -30 18 0
12 -11 29 -25 38 -14 9 -25 12 -25 6 0 -5 4 -10 9 -10 5 0 11 -9 14 -20 7 -28
-3 -26 -149 25 -71 25 -134 43 -142 40 -7 -2 -10 0 -7 5 3 5 -5 15 -19 22 -14
6 -26 15 -26 20 0 4 -5 8 -11 8 -5 0 -8 -3 -6 -7 3 -5 -1 -14 -9 -21 -8 -7
-15 -10 -15 -7 -1 3 -2 8 -3 13 -1 4 -10 19 -20 35 -19 29 -39 37 -30 12 4 -8
2 -15 -3 -15 -15 0 -43 35 -43 53 0 9 -4 19 -10 22 -5 3 -10 1 -10 -5 0 -7 -8
-9 -19 -5 -23 7 -76 -40 -95 -87 -22 -52 -82 -100 -135 -109 -70 -12 -91 -11
-85 4 3 8 -5 13 -23 15 -14 1 -34 9 -43 17 -9 8 -21 15 -27 15 -16 0 -23 89
-11 145 6 28 27 84 48 125 20 41 40 87 44 102 3 15 17 35 30 43 23 16 28 14
130 -56 59 -40 119 -86 134 -103 l28 -32 27 39 28 38 37 -21 c43 -25 36 -19
-143 107 -71 51 -138 93 -147 93 -10 0 -18 7 -18 15 0 17 -77 71 -87 61 -8 -8
-43 24 -43 40 0 17 -57 15 -71 -3 -20 -23 -32 -14 -15 12 15 23 15 25 -18 50
-30 22 -37 24 -54 14 -17 -10 -23 -10 -36 1 -15 11 -15 15 -1 36 19 30 19 34
-4 34 -10 0 -27 -12 -36 -27 -15 -23 -16 -28 -3 -37 8 -6 49 -40 91 -75 42
-35 91 -71 109 -80 17 -9 34 -23 36 -31 4 -12 0 -11 -21 3 -33 22 -40 21 -35
0 3 -10 -3 -26 -13 -36 -17 -18 -17 -18 -24 2 -3 11 -21 30 -38 42 -18 12 -46
35 -64 52 -36 34 -48 30 -57 -17 -22 -115 -87 -235 -128 -236 -24 0 -88 40
-88 55 0 21 -28 26 -40 7 -11 -16 -11 -16 -6 1 3 9 1 17 -3 17 -5 0 -21 21
-35 46 -24 44 -26 55 -25 171 0 69 -2 127 -4 130 -3 2 -74 5 -159 6 l-153 2 0
-27 c1 -16 -3 -28 -7 -28 -4 0 -8 -8 -8 -17 0 -32 -47 -119 -84 -156 -35 -35
-67 -44 -93 -24 -7 5 -17 6 -23 2 -6 -4 -9 -1 -8 7 2 9 -6 12 -24 11 -16 -1
-28 2 -28 7 0 5 -7 10 -16 12 -17 3 -43 62 -50 113 -6 42 -5 140 2 203 6 45 4
51 -10 46 -10 -4 -16 -1 -16 8 0 15 -96 105 -171 161 -35 26 -55 35 -46 20 9
-15 -14 -144 -33 -188 -24 -57 -63 -100 -83 -92 -9 3 -18 1 -21 -6 -2 -7 -5
-5 -5 5 -1 9 -10 20 -21 23 -11 3 -20 13 -20 21 0 10 -7 13 -25 8 -14 -3 -25
-4 -25 -2 0 3 -11 34 -24 70 -28 80 -35 111 -41 212 -6 87 -9 96 -34 96 -9 0
-26 6 -36 14 -13 9 -28 11 -50 5 -25 -7 -55 -2 -133 21 -56 16 -103 30 -106
30 -2 0 -12 -31 -21 -70 -20 -81 -77 -170 -118 -184 -22 -8 -32 -6 -55 11 -15
12 -26 26 -24 33 1 7 -7 10 -20 9 -13 -2 -29 0 -35 4 -7 5 -13 5 -13 0 -1 -4
-7 3 -15 17 -23 40 -19 125 10 270 9 44 14 123 8 116 -4 -3 -29 16 -57 43 -28
27 -73 69 -100 94 l-49 44 -24 -46 c-13 -25 -45 -77 -71 -116 -48 -72 -74 -86
-99 -55 -9 10 -12 11 -13 3 0 -18 -20 -16 -20 2 0 8 -7 15 -15 15 -8 0 -15 4
-15 10 0 5 -6 9 -12 7 -19 -3 -20 141 -1 237 19 100 19 137 0 173 -9 15 -18
36 -21 45 -5 17 -8 17 -50 0 -25 -9 -83 -47 -128 -83 -118 -94 -216 -163 -268
-189 -25 -12 -53 -26 -62 -31 -28 -14 -56 -11 -66 8 -7 12 -17 14 -41 10 -27
-6 -31 -4 -29 11 2 11 -5 18 -19 20 -19 3 -21 8 -17 35 8 41 87 160 139 210
22 21 68 61 103 89 34 28 62 54 62 58 0 9 -71 42 -78 36 -3 -3 -20 8 -39 24
-18 17 -40 30 -47 30 -8 0 -17 12 -20 26 -4 16 -12 24 -21 21 -7 -3 -19 1 -26
9 -21 26 -70 46 -95 40 -15 -4 -29 0 -41 13 -10 10 -35 21 -57 24 -21 3 -46
12 -55 20 -9 7 -36 19 -61 27 -25 7 -58 18 -75 25 -34 14 -189 33 -284 35 -45
0 -71 -4 -90 -17 -27 -18 -31 -20 -55 -22 -7 0 -24 -12 -38 -25 -14 -12 -42
-33 -62 -45 -20 -13 -36 -26 -36 -31 0 -4 -13 -13 -29 -20 -16 -6 -40 -23 -53
-37 -12 -14 -40 -34 -60 -44 -29 -15 -38 -26 -38 -45 0 -14 -4 -23 -10 -19 -6
3 -10 2 -10 -4 0 -5 -9 -12 -20 -16 -11 -3 -39 -24 -62 -45 -24 -21 -60 -53
-82 -72 -21 -18 -51 -45 -67 -60 -16 -14 -44 -36 -63 -47 -19 -12 -36 -28 -40
-36 -3 -8 -23 -23 -45 -34 -22 -12 -46 -29 -53 -39 -7 -11 -26 -26 -43 -35
-16 -8 -46 -31 -65 -51 -19 -19 -40 -36 -45 -36 -6 0 -33 -20 -62 -45 -28 -25
-55 -45 -60 -45 -5 0 -19 -9 -31 -20 -12 -12 -41 -30 -64 -41 -24 -11 -70 -36
-103 -54 -33 -19 -76 -41 -95 -50 -19 -8 -46 -22 -60 -30 -14 -8 -44 -24 -67
-35 -23 -11 -45 -25 -48 -30 -3 -6 -13 -10 -21 -10 -8 0 -31 -7 -52 -17 -20
-9 -42 -15 -49 -14 -6 1 -14 -3 -18 -9 -3 -5 -14 -10 -23 -10 -9 0 -29 -6 -43
-14 -14 -7 -43 -16 -64 -20 -20 -4 -45 -11 -54 -16 -16 -8 -103 -34 -211 -63
-30 -8 -74 -20 -97 -26 -24 -7 -43 -15 -43 -19 0 -4 -35 -7 -77 -6 -47 1 -81
-3 -86 -10 -6 -8 -10 -7 -14 2 -4 10 -10 9 -30 -4 -18 -11 -39 -15 -70 -11
-24 2 -45 1 -48 -2 -7 -12 -252 -12 -340 -1 -141 18 -219 33 -241 47 -11 7
-34 14 -52 16 -18 2 -35 7 -39 10 -3 4 -14 7 -24 7 -9 0 -20 7 -23 16 -3 9
-13 14 -21 10 -8 -3 -17 -1 -20 4 -4 6 -17 10 -30 10 -13 0 -27 5 -30 10 -3 6
-2 10 4 10 6 0 8 7 5 15 -4 8 -10 12 -15 9 -5 -3 -14 0 -21 5 -57 47 -78 62
-78 55 0 -4 -8 -1 -17 7 -10 8 -29 20 -43 26 -68 29 -88 43 -154 110 -39 40
-76 73 -83 73 -7 0 -13 6 -14 13 0 6 -19 28 -43 47 -23 19 -64 70 -90 113 -34
55 -53 77 -63 73 -8 -3 -24 1 -36 9 -12 8 -33 15 -48 15 -38 0 -131 97 -160
166 -12 30 -19 57 -16 60 10 10 27 -7 27 -27 0 -10 7 -19 15 -19 10 0 15 -10
15 -29 0 -44 72 -117 128 -130 24 -5 50 -17 58 -28 13 -16 13 -15 3 12 -6 17
-26 46 -44 65 -61 63 -85 91 -85 98 0 7 -26 41 -127 171 -61 79 -219 241 -234
241 -5 0 -17 8 -27 18 -10 9 -34 31 -54 48 -19 17 -37 36 -39 41 -2 6 -23 -4
-47 -21z m4842 -97 c9 14 68 14 101 -1 14 -6 25 -20 26 -32 1 -17 2 -18 6 -3
6 23 13 21 46 -12 25 -25 27 -32 17 -51 -9 -17 -15 -19 -23 -10 -9 9 -8 14 5
24 15 11 13 13 -15 14 -18 0 -52 3 -77 6 l-45 5 42 -10 c26 -6 52 -21 68 -40
39 -47 30 -55 -16 -14 -38 34 -46 37 -85 32 -24 -2 -41 -1 -38 4 3 5 1 9 -4 9
-11 0 -42 -61 -42 -83 0 -8 -7 -18 -16 -21 -22 -9 -24 -8 -24 9 0 8 -5 15 -11
15 -5 0 -7 4 -4 10 3 6 -1 7 -9 4 -10 -4 -20 3 -27 20 -10 22 -9 30 12 61 13
19 30 35 37 35 6 0 22 10 33 21 16 16 23 18 29 9 5 -9 9 -9 14 -1z m-240 -83
c-15 -37 -29 -65 -31 -62 -3 3 -20 -1 -38 -8 -28 -12 -34 -12 -56 5 -21 16
-22 19 -5 19 19 0 111 88 108 103 -2 5 1 6 6 3 4 -2 14 -1 22 4 8 5 16 8 17 6
2 -1 -9 -33 -23 -70z m463 -18 c-4 -12 -2 -27 4 -34 14 -17 -8 -29 -26 -14
-13 10 -12 16 1 41 17 34 29 38 21 7z m-376 -31 c-13 -13 -15 1 -4 30 7 17 8
17 11 -1 2 -10 -1 -23 -7 -29z m413 -50 c-1 -9 2 -15 6 -12 9 5 22 -36 14 -44
-3 -3 -9 1 -14 9 -7 10 -10 11 -10 3 0 -20 -28 -15 -32 5 -6 23 13 63 26 59 6
-2 10 -11 10 -20z m-243 -33 l24 -27 -27 18 c-16 9 -28 21 -28 26 0 14 5 11
31 -17z m193 -38 c-3 -14 -20 -37 -36 -51 -44 -37 -95 -33 -149 13 -33 28 -21
33 17 7 20 -14 50 -25 66 -25 33 0 78 39 78 68 0 10 3 22 7 25 13 13 24 -10
17 -37z m-630 25 c3 -4 23 -11 43 -15 28 -4 41 -13 50 -33 16 -34 12 -38 -18
-15 -13 10 -41 26 -61 37 -21 11 -38 23 -38 27 0 11 18 10 24 -1z m369 -6 c4
0 8 -4 10 -10 1 -5 -10 -10 -24 -10 -20 -1 -25 3 -21 17 2 10 9 15 16 11 6 -4
14 -8 19 -8z m-4408 -5 c3 -5 1 -10 -4 -10 -6 0 -11 5 -11 10 0 6 2 10 4 10 3
0 8 -4 11 -10z m4835 -32 c0 -4 -4 -8 -10 -8 -5 0 -7 -13 -5 -30 4 -35 -3 -37
-38 -10 -27 21 -27 60 -1 60 8 0 17 7 21 16 6 15 8 15 20 -2 7 -10 13 -21 13
-26z m-117 -10 c22 -30 15 -57 -9 -34 -8 9 -20 14 -27 12 -7 -1 -9 -1 -4 1 4
3 4 10 0 16 -4 7 0 8 12 3 18 -6 18 -6 -1 15 -13 15 -14 20 -5 17 8 -2 23 -16
34 -30z m-274 -4 c-15 -19 -59 -18 -59 0 0 16 25 24 53 18 14 -4 15 -7 6 -18z
m-52 -26 c21 -20 24 -20 41 -5 25 22 32 21 32 -4 0 -14 -5 -19 -15 -16 -8 4
-17 2 -20 -3 -4 -6 0 -10 9 -10 8 0 17 -6 19 -12 4 -10 8 -10 16 2 5 8 7 18 4
24 -3 5 -1 6 5 2 7 -4 12 -2 12 4 0 6 5 8 11 5 7 -5 5 -13 -5 -24 -14 -15 -13
-18 7 -30 12 -8 36 -15 53 -17 27 -2 31 0 27 17 -3 10 -1 19 5 19 5 0 12 -9
15 -20 5 -18 8 -19 34 -8 15 7 29 13 31 14 2 1 -2 13 -9 26 -12 23 -12 23 10
4 26 -24 26 -27 -4 -49 -32 -23 -107 -37 -149 -27 -46 10 -140 74 -154 105
-14 31 -6 32 25 3z m-423 -33 c30 -21 57 -33 67 -30 10 3 21 0 25 -6 5 -9 2
-10 -9 -6 -29 11 -18 0 28 -30 25 -15 45 -34 45 -40 0 -18 -1 -17 -70 23 -102
60 -147 76 -170 64 -11 -6 -18 -15 -15 -21 4 -5 2 -9 -3 -9 -12 0 -35 -77 -27
-90 3 -6 -1 -10 -10 -10 -9 0 -33 -12 -53 -27 -20 -15 -34 -23 -29 -18 4 4 0
19 -8 31 -22 34 0 79 78 163 49 53 83 54 151 6z m771 -195 c-3 -5 -10 -10 -16
-10 -5 0 -9 5 -9 10 0 6 7 10 16 10 8 0 12 -4 9 -10z m-1005 -32 c0 -4 -7 -8
-16 -8 -9 0 -12 -5 -8 -12 5 -7 3 -8 -5 -4 -8 6 -11 2 -9 -10 2 -13 -2 -18
-12 -16 -8 2 -12 0 -7 -4 11 -11 -23 -44 -45 -44 -11 0 -16 -4 -13 -10 3 -5
-1 -10 -9 -10 -9 0 -16 -6 -17 -12 0 -10 -2 -10 -6 0 -7 18 58 122 77 123 8 1
21 1 29 0 7 -2 10 2 7 8 -4 5 2 9 14 8 11 -1 20 -5 20 -9z m995 -38 c3 -5 1
-10 -4 -10 -6 0 -11 5 -11 10 0 6 2 10 4 10 3 0 8 -4 11 -10z m-4319 -197
c-10 -10 -19 5 -10 18 6 11 8 11 12 0 2 -7 1 -15 -2 -18z m4134 -14 c0 -5 -8
-12 -17 -15 -10 -3 -26 -10 -35 -15 -26 -13 -60 -11 -55 4 2 6 16 11 30 9 17
-2 31 4 38 17 12 18 39 18 39 0z m30 -35 c0 -3 -6 -12 -14 -20 -8 -7 -16 -19
-19 -26 -2 -7 -8 -10 -12 -6 -9 9 21 58 35 58 6 0 10 -3 10 -6z m-4138 -34
c-35 -17 -67 -30 -70 -30 -13 1 103 59 118 60 8 0 -14 -14 -48 -30z m4002 6
c-6 -15 -67 -66 -78 -66 -4 0 11 18 31 40 39 41 57 51 47 26z m86 -40 c0 -2
-7 -7 -16 -10 -8 -3 -12 -2 -9 4 6 10 25 14 25 6z m-3941 -78 c-51 -34 -112
-59 -122 -49 -15 15 20 51 52 52 14 0 35 4 46 8 25 10 42 2 24 -11z m6 -28
c-3 -5 -12 -10 -18 -10 -7 0 -6 4 3 10 19 12 23 12 15 0z m3820 -10 c-10 -11
-22 -20 -27 -20 -10 0 24 38 36 39 5 1 1 -8 -9 -19z m-125 -15 c-7 -8 -16 -15
-21 -15 -5 0 -6 7 -3 15 4 8 13 15 21 15 13 0 13 -3 3 -15z m-3675 -65 c-20
-4 -30 -11 -29 -23 1 -9 -2 -17 -7 -17 -5 0 -9 5 -9 11 0 6 -9 8 -22 3 -20 -6
-21 -5 -9 10 16 19 70 35 91 27 10 -3 4 -7 -15 -11z m154 -23 c-16 -13 -162
-86 -152 -76 18 18 126 78 142 79 8 0 12 -1 10 -3z m3521 -17 c0 -5 -7 -10
-16 -10 -8 0 -12 5 -9 10 3 6 10 10 16 10 5 0 9 -4 9 -10z m-3390 -95 c8 -6
22 -19 30 -29 14 -18 13 -18 -10 -11 -14 4 -27 11 -30 15 -3 4 -18 14 -35 23
l-30 16 30 -3 c17 -1 37 -6 45 -11z m5480 5 c0 -5 -5 -10 -11 -10 -5 0 -7 5
-4 10 3 6 8 10 11 10 2 0 4 -4 4 -10z m-5395 -68 c-3 -3 -11 0 -18 7 -9 10 -8
11 6 5 10 -3 15 -9 12 -12z m130 -2 c3 -5 2 -10 -4 -10 -5 0 -13 5 -16 10 -3
6 -2 10 4 10 5 0 13 -4 16 -10z m248 -27 c-7 -2 -19 -2 -25 0 -7 3 -2 5 12 5
14 0 19 -2 13 -5z m5905 -78 c-3 -3 -9 2 -12 12 -6 14 -5 15 5 6 7 -7 10 -15
7 -18z m-6028 -115 c0 -5 -2 -10 -4 -10 -3 0 -8 5 -11 10 -3 6 -1 10 4 10 6 0
11 -4 11 -10z m6050 0 c0 -5 -2 -10 -4 -10 -3 0 -8 5 -11 10 -3 6 -1 10 4 10
6 0 11 -4 11 -10z m-4165 -78 c-3 -3 -11 0 -18 7 -9 10 -8 11 6 5 10 -3 15 -9
12 -12z m-1310 -62 c3 -5 2 -10 -4 -10 -5 0 -13 5 -16 10 -3 6 -2 10 4 10 5 0
13 -4 16 -10z m1605 -10 c0 -5 -7 -7 -15 -4 -8 4 -15 8 -15 10 0 2 7 4 15 4 8
0 15 -4 15 -10z m-1440 -30 c8 -5 11 -10 5 -10 -5 0 -17 5 -25 10 -8 5 -10 10
-5 10 6 0 17 -5 25 -10z m160 -50 c8 -5 11 -10 5 -10 -5 0 -17 5 -25 10 -8 5
-10 10 -5 10 6 0 17 -5 25 -10z m5510 -55 c0 -14 -4 -25 -10 -25 -5 0 -10 11
-10 25 0 14 5 25 10 25 6 0 10 -11 10 -25z m-5345 5 c3 -6 -1 -7 -9 -4 -18 7
-21 14 -7 14 6 0 13 -4 16 -10z m6355 6 c0 -3 -4 -8 -10 -11 -5 -3 -10 -1 -10
4 0 6 5 11 10 11 6 0 10 -2 10 -4z m-6215 -26 c3 -5 -1 -10 -10 -10 -9 0 -13
5 -10 10 3 6 8 10 10 10 2 0 7 -4 10 -10z m4634 -24 c-3 -3 -11 5 -18 17 -13
21 -12 21 5 5 10 -10 16 -20 13 -22z m1461 -21 c11 -13 8 -15 -14 -13 -26 2
-32 9 -19 21 10 11 19 8 33 -8z m46 4 c3 -6 2 -15 -4 -21 -7 -7 -14 -3 -21 11
-10 17 -9 21 3 21 8 0 18 -5 22 -11z m-7541 -9 c3 -5 1 -10 -4 -10 -6 0 -11 5
-11 10 0 6 2 10 4 10 3 0 8 -4 11 -10z m6115 -25 c19 -22 8 -25 -12 -3 -10 10
-14 18 -9 18 5 0 14 -7 21 -15z m-4480 -5 c0 -5 -2 -10 -4 -10 -3 0 -8 5 -11
10 -3 6 -1 10 4 10 6 0 11 -4 11 -10z m-1480 -25 c7 -8 8 -15 2 -15 -5 0 -15
7 -22 15 -7 8 -8 15 -2 15 5 0 15 -7 22 -15z m1610 -5 c0 -5 -2 -10 -4 -10 -3
0 -8 5 -11 10 -3 6 -1 10 4 10 6 0 11 -4 11 -10z m4545 -20 c3 -5 1 -10 -4
-10 -6 0 -11 5 -11 10 0 6 2 10 4 10 3 0 8 -4 11 -10z m118 -7 c9 -3 17 -9 17
-14 0 -12 -27 -11 -51 1 -24 13 -26 35 -1 25 9 -4 25 -10 35 -12z m1422 -3 c8
-14 -14 -42 -29 -37 -6 2 -11 8 -11 13 0 5 -4 15 -8 22 -6 8 -1 12 17 12 14 0
28 -5 31 -10z m-7555 -25 c11 -13 10 -14 -4 -9 -9 3 -16 10 -16 15 0 13 6 11
20 -6z m6033 -15 c14 -11 33 -20 42 -20 25 0 55 -19 55 -35 0 -19 -8 -19 -26
0 -9 9 -33 15 -57 15 -35 0 -44 4 -53 25 -19 39 -1 46 39 15z m1567 2 c0 -5
-9 -17 -20 -27 -22 -20 -26 -14 -10 16 11 19 30 26 30 11z m-7460 -43 c0 -5
-4 -9 -10 -9 -5 0 -10 7 -10 16 0 8 5 12 10 9 6 -3 10 -10 10 -16z m145 -49
c3 -5 2 -10 -4 -10 -5 0 -13 5 -16 10 -3 6 -2 10 4 10 5 0 13 -4 16 -10z
m5725 -10 c0 -5 -5 -10 -11 -10 -5 0 -7 5 -4 10 3 6 8 10 11 10 2 0 4 -4 4
-10z m-5575 -58 c-7 -8 -35 7 -35 18 0 6 7 6 20 -2 10 -7 17 -14 15 -16z m145
-54 c0 -6 -6 -5 -15 2 -8 7 -15 14 -15 16 0 2 7 1 15 -2 8 -4 15 -11 15 -16z
m145 -38 c3 -5 2 -10 -4 -10 -5 0 -13 5 -16 10 -3 6 -2 10 4 10 5 0 13 -4 16
-10z m5510 -20 c3 -5 1 -10 -4 -10 -6 0 -11 5 -11 10 0 6 2 10 4 10 3 0 8 -4
11 -10z m95 -60 c0 -4 -6 -10 -14 -13 -9 -4 -13 2 -13 19 0 20 2 22 13 13 8
-6 14 -15 14 -19z m-219 -12 c-5 -13 -25 -60 -45 -105 -20 -45 -36 -87 -36
-95 0 -8 -4 -18 -10 -24 -5 -5 -16 -30 -24 -54 -26 -83 -52 -145 -78 -185 -14
-22 -40 -67 -58 -100 -18 -33 -78 -116 -133 -184 -103 -127 -256 -293 -257
-278 0 5 26 36 59 70 181 191 373 463 408 577 7 25 19 59 27 75 22 47 33 74
69 165 19 47 43 102 53 122 21 41 39 52 25 16z m256 9 c4 -8 16 -18 27 -24 10
-6 14 -13 9 -16 -6 -4 -23 7 -38 23 -16 17 -24 30 -17 30 6 0 15 -6 19 -13z
m-1365 -29 c-5 -5 -22 -8 -38 -6 -26 4 -27 5 -9 12 11 4 27 11 35 15 18 10 27
-6 12 -21z m-3966 6 c17 -14 17 -15 1 -10 -10 3 -23 6 -28 6 -5 0 -9 5 -9 10
0 14 13 12 36 -6z m170 -59 c10 -8 14 -15 8 -15 -5 0 -19 7 -30 15 -10 8 -14
15 -8 15 5 0 19 -7 30 -15z m5200 -14 c67 -25 79 -32 80 -52 1 -13 7 -55 13
-94 6 -38 13 -100 16 -137 2 -37 8 -75 13 -85 5 -10 7 -23 5 -29 -2 -7 9 -34
25 -61 16 -27 35 -67 42 -89 19 -58 63 -143 77 -148 7 -3 10 1 6 10 -9 25 15
15 37 -16 20 -28 23 -29 43 -15 31 22 50 19 78 -11 l24 -27 -25 7 c-74 20 -80
19 -80 -3 0 -11 5 -21 10 -21 6 0 10 -9 10 -21 0 -46 51 -109 89 -109 35 0
112 -31 105 -42 -3 -5 11 -25 33 -45 21 -20 30 -34 21 -30 -14 5 -18 1 -18
-14 0 -18 -4 -20 -22 -14 -13 4 -31 7 -41 6 -9 0 -15 4 -12 8 6 11 -56 42 -68
34 -5 -3 -4 4 2 15 10 19 8 21 -15 19 -16 -1 -29 4 -32 13 -5 13 -3 13 12 1
14 -12 18 -12 31 5 12 17 11 20 -6 26 -28 11 -77 68 -90 107 -8 23 -14 29 -19
21 -5 -8 -2 -19 6 -27 16 -17 19 -43 4 -43 -5 0 -10 5 -10 11 0 8 -13 9 -40 5
-32 -5 -40 -3 -40 9 0 17 -36 21 -42 4 -2 -7 -9 -5 -17 5 -12 14 -12 16 3 10
22 -9 20 5 -5 27 -11 9 -20 20 -20 23 2 18 0 26 -6 25 -5 -1 -15 -1 -23 0 -13
1 -13 2 0 11 13 8 13 10 -2 10 -10 0 -25 12 -35 26 -13 21 -23 25 -51 22 -30
-4 -32 -3 -16 9 16 11 13 13 -24 13 -23 0 -42 5 -42 10 0 6 -9 10 -20 10 -11
0 -20 4 -20 9 0 9 -34 17 -118 27 -32 5 -42 10 -40 23 2 12 -7 17 -39 19 -26
2 -43 -1 -43 -7 0 -6 -9 -11 -20 -11 -17 0 -20 -7 -20 -45 0 -40 -3 -47 -27
-56 -15 -5 -50 -8 -77 -7 -47 3 -49 4 -25 15 16 7 30 25 39 52 7 23 19 41 25
41 6 0 17 11 23 25 7 16 17 23 27 19 10 -4 15 0 15 12 0 16 2 17 10 4 5 -8 10
-10 10 -5 0 19 -18 38 -29 31 -6 -4 -11 0 -11 8 0 9 4 16 8 16 21 0 45 29 48
60 2 18 13 39 24 47 11 8 20 25 20 39 0 13 5 24 10 24 6 0 8 11 4 26 -5 20 -2
26 14 31 16 4 22 16 27 65 6 50 11 62 34 76 24 15 26 21 20 57 -13 74 21 82
147 36z m-7327 -6 c62 -31 80 -57 122 -175 41 -116 43 -177 10 -315 -25 -106
-27 -131 -16 -210 6 -45 4 -55 -24 -95 -28 -43 -109 -110 -211 -176 -25 -16
-49 -34 -53 -41 -11 -18 -98 -16 -123 2 -12 8 -24 12 -27 9 -3 -3 -24 8 -46
26 -22 18 -45 29 -51 25 -15 -9 -36 10 -83 80 l-42 60 4 154 c2 96 9 175 18
210 8 31 17 72 19 91 7 65 10 75 26 100 9 14 18 36 22 50 5 22 100 129 163
183 35 30 93 46 171 47 58 0 82 -5 121 -25z m5766 -14 c-3 -6 -18 -10 -33 -10
-21 1 -22 2 -7 6 11 3 24 9 29 14 12 11 20 4 11 -10z m1300 -71 c3 -5 1 -10
-4 -10 -6 0 -11 5 -11 10 0 6 2 10 4 10 3 0 8 -4 11 -10z m-1440 -10 c-3 -5
-16 -10 -28 -9 -21 0 -21 1 -2 9 28 12 37 12 30 0z m2215 -46 c0 -8 -4 -12
-10 -9 -5 3 -10 10 -10 16 0 5 5 9 10 9 6 0 10 -7 10 -16z m-2360 -34 c-8 -5
-24 -9 -35 -9 -16 1 -16 2 5 9 35 11 48 11 30 0z m-2755 -18 c-3 -3 -11 0 -18
7 -9 10 -8 11 6 5 10 -3 15 -9 12 -12z m115 -28 c0 -2 -7 -4 -15 -4 -8 0 -15
4 -15 10 0 5 7 7 15 4 8 -4 15 -8 15 -10z m4970 -4 c0 -5 -4 -10 -10 -10 -5 0
-10 5 -10 10 0 6 5 10 10 10 6 0 10 -4 10 -10z m-2412 -35 c2 -29 -6 -31 -34
-11 -10 8 -30 13 -44 10 -24 -5 -24 -5 -6 10 11 9 34 16 51 16 25 0 31 -4 33
-25z m2406 -52 c-10 -43 -17 -48 -26 -23 -5 14 -4 28 3 36 19 23 30 16 23 -13z
m-4649 -11 c-3 -3 -11 0 -18 7 -9 10 -8 11 6 5 10 -3 15 -9 12 -12z m3825 8
c0 -5 -4 -10 -10 -10 -5 0 -10 5 -10 10 0 6 5 10 10 10 6 0 10 -4 10 -10z
m825 -84 c-19 -14 -19 -15 -2 -51 13 -28 15 -41 6 -57 -9 -16 -8 -23 2 -29 10
-6 8 -9 -7 -9 -22 0 -41 28 -27 39 15 11 14 43 -3 68 -16 25 -16 27 2 40 10 7
25 13 33 13 11 0 10 -3 -4 -14z m85 -6 c0 -11 -4 -20 -9 -20 -5 0 -11 9 -14
20 -3 13 0 20 9 20 8 0 14 -9 14 -20z m0 -117 c0 -98 40 -200 109 -275 29 -32
51 -61 49 -64 -8 -7 -102 99 -122 138 -10 18 -24 44 -31 58 -14 25 -36 188
-28 203 13 23 23 -1 23 -60z m-159 -59 l24 -27 -30 7 c-36 9 -57 25 -49 37 10
16 30 10 55 -17z m-2972 0 c2 -2 2 -7 -1 -10 -4 -3 -19 2 -35 11 l-28 16 30
-6 c16 -4 32 -9 34 -11z m3061 -10 c-8 -9 -8 -19 0 -36 10 -21 10 -21 -3 -5
-8 9 -19 17 -24 17 -6 0 -8 11 -6 24 4 18 10 22 24 19 15 -4 17 -9 9 -19z
m-1027 -34 c-3 -11 -9 -20 -14 -20 -11 0 -11 3 -3 24 9 23 23 20 17 -4z
m-2233 -10 c-8 -5 -19 -10 -25 -10 -5 0 -3 5 5 10 8 5 20 10 25 10 6 0 3 -5
-5 -10z m3279 -72 c-7 -13 -4 -20 11 -28 31 -17 23 -30 -11 -17 -23 9 -29 16
-25 32 3 11 6 31 6 44 0 24 1 24 14 6 10 -13 11 -25 5 -37z m-2932 36 c-3 -3
-12 -4 -19 -1 -8 3 -5 6 6 6 11 1 17 -2 13 -5z m1952 -33 c13 -8 13 -12 1 -26
-26 -32 -90 -56 -90 -35 0 6 7 10 15 10 9 0 24 13 33 30 19 33 21 34 41 21z
m-1794 -51 c3 -6 -1 -7 -9 -4 -18 7 -21 14 -7 14 6 0 13 -4 16 -10z m1709 -59
c6 -9 -71 -67 -79 -59 -3 3 6 13 20 22 14 9 25 23 25 31 0 16 25 21 34 6z
m5006 -1 c0 -5 -2 -10 -4 -10 -3 0 -8 5 -11 10 -3 6 -1 10 4 10 6 0 11 -4 11
-10z m-5140 -10 c0 -5 -5 -10 -11 -10 -5 0 -7 5 -4 10 3 6 8 10 11 10 2 0 4
-4 4 -10z m1310 -55 l23 -25 -31 0 c-30 0 -47 19 -19 21 10 0 10 2 0 6 -14 5
-18 23 -5 23 5 0 19 -11 32 -25z m-1303 -70 c-16 -14 -34 -22 -40 -18 -7 4 0
10 16 16 15 5 27 13 27 18 0 5 6 9 13 9 6 0 -1 -12 -16 -25z m1593 -6 c13 -7
13 -8 0 -8 -8 0 -26 6 -40 15 l-25 15 25 -7 c14 -3 32 -10 40 -15z m-1890 -23
c0 -2 -8 -10 -17 -17 -16 -13 -17 -12 -4 4 13 16 21 21 21 13z m336 -22 c-4
-9 -9 -15 -11 -12 -3 3 -3 13 1 22 4 9 9 15 11 12 3 -3 3 -13 -1 -22z m1641
20 c-3 -3 -12 -4 -19 -1 -8 3 -5 6 6 6 11 1 17 -2 13 -5z m40 -10 c-3 -3 -12
-4 -19 -1 -8 3 -5 6 6 6 11 1 17 -2 13 -5z m-207 -19 c12 4 20 2 20 -4 0 -17
-56 -13 -71 6 -13 15 -12 15 9 4 12 -7 32 -9 42 -6z m273 8 c-7 -2 -21 -2 -30
0 -10 3 -4 5 12 5 17 0 24 -2 18 -5z m50 -10 c-7 -2 -19 -2 -25 0 -7 3 -2 5
12 5 14 0 19 -2 13 -5z m-1928 -22 c-3 -6 -16 -16 -28 -22 -21 -11 -21 -10 2
15 23 25 40 29 26 7z m2003 12 c-10 -2 -26 -2 -35 0 -10 3 -2 5 17 5 19 0 27
-2 18 -5z m-535 -33 c26 -7 47 -17 47 -21 0 -5 -4 -9 -9 -9 -5 0 -17 -8 -27
-17 -15 -16 -17 -16 -31 3 -7 10 -16 17 -19 15 -13 -9 -41 23 -37 41 4 12 9
15 17 10 6 -5 32 -15 59 -22z m660 23 c-7 -2 -19 -2 -25 0 -7 3 -2 5 12 5 14
0 19 -2 13 -5z m-2973 -13 c13 -8 13 -10 -2 -10 -9 0 -20 5 -23 10 -8 13 5 13
25 0z m2680 -30 c0 -5 -10 -10 -22 -10 -19 0 -20 2 -8 10 19 13 30 13 30 0z
m-1990 -4 c0 -3 -4 -8 -10 -11 -5 -3 -10 -1 -10 4 0 6 5 11 10 11 6 0 10 -2
10 -4z m1745 -31 c30 -11 35 -15 18 -16 -27 -2 -32 -3 -55 -13 -24 -11 -58 22
-37 35 19 12 27 11 74 -6z m495 5 c0 -5 -10 -10 -22 -10 -19 0 -20 2 -8 10 19
13 30 13 30 0z m-300 -52 c0 -5 -27 -8 -60 -8 -33 0 -60 3 -60 8 0 4 27 7 60
7 33 0 60 -3 60 -7z m110 -17 c0 -12 -68 -24 -83 -14 -7 5 3 10 28 14 22 3 43
7 48 8 4 0 7 -3 7 -8z m204 -18 c29 -13 42 -14 73 -5 29 8 50 8 87 -2 35 -9
44 -15 32 -19 -10 -4 -21 -5 -25 -2 -11 6 -69 7 -126 1 -33 -3 -52 -1 -57 7
-6 9 -8 9 -8 0 0 -8 -9 -8 -34 -1 -23 7 -43 7 -63 0 -32 -11 -60 -1 -49 17 4
5 19 8 34 5 15 -3 38 -1 52 5 35 14 45 13 84 -6z m261 -3 c-3 -5 -11 -10 -16
-10 -6 0 -7 5 -4 10 3 6 11 10 16 10 6 0 7 -4 4 -10z"/>
<path d="M5604 7472 c3 -6 2 -13 -4 -17 -13 -8 -13 -35 1 -35 5 0 7 5 4 10 -4
6 -2 17 5 25 8 10 8 15 -1 21 -7 4 -9 3 -5 -4z"/>
<path d="M9117 4563 c-10 -9 -9 -63 1 -63 4 0 12 -15 17 -32 6 -18 13 -31 16
-28 4 3 16 -4 28 -14 12 -11 21 -14 21 -8 0 6 -5 14 -10 17 -15 10 -70 122
-63 129 4 3 4 6 1 6 -2 0 -8 -3 -11 -7z"/>
<path d="M9217 4406 c-21 -16 -22 -26 -1 -26 8 0 13 4 9 9 -3 5 3 11 12 13 10
2 13 6 8 10 -6 3 -18 1 -28 -6z"/>
<path d="M9255 4360 c-3 -5 -2 -10 4 -10 5 0 13 5 16 10 3 6 2 10 -4 10 -5 0
-13 -4 -16 -10z"/>
<path d="M1302 4954 c-30 -15 -65 -62 -58 -79 4 -12 30 -15 138 -15 73 0 139
4 146 9 20 12 11 44 -16 56 -12 5 -22 15 -22 22 0 15 -5 16 -96 17 -38 1 -80
-4 -92 -10z"/>
<path d="M1340 4813 c-31 -11 -71 -59 -81 -97 -10 -37 -9 -42 12 -59 29 -24
88 -19 103 8 22 38 35 48 51 35 8 -6 19 -9 24 -6 13 8 -23 73 -57 104 -26 23
-28 24 -52 15z m-20 -73 c0 -5 -2 -10 -4 -10 -3 0 -8 5 -11 10 -3 6 -1 10 4
10 6 0 11 -4 11 -10z m50 -10 c-16 -11 -40 -13 -40 -5 0 8 44 24 50 18 2 -2
-2 -8 -10 -13z"/>
<path d="M1217 4786 c-8 -21 10 -59 24 -51 13 9 11 28 -4 49 -13 18 -14 18
-20 2z"/>
<path d="M1303 4623 c-24 -9 -13 -24 15 -21 15 2 26 8 25 13 -2 12 -23 16 -40
8z"/>
<path d="M621 7073 c-11 -40 -15 -100 -6 -91 7 7 26 121 21 126 -3 2 -9 -13
-15 -35z"/>
<path d="M619 6943 c-34 -90 -51 -153 -56 -212 l-6 -66 37 34 c20 19 36 40 36
45 0 6 -7 3 -14 -6 -7 -10 -15 -18 -18 -18 -4 0 15 131 31 208 9 48 5 55 -10
15z"/>
<path d="M637 6880 c-3 -11 -1 -20 4 -20 5 0 9 9 9 20 0 11 -2 20 -4 20 -2 0
-6 -9 -9 -20z"/>
<path d="M7294 6849 c-3 -6 -1 -15 6 -19 7 -4 10 -12 6 -18 -3 -5 1 -16 10
-23 13 -11 14 -9 8 17 -4 16 -7 34 -7 41 0 16 -13 17 -23 2z"/>
<path d="M7581 6684 c6 -8 18 -14 26 -14 20 0 8 16 -17 23 -17 4 -19 3 -9 -9z"/>
<path d="M7885 6613 c39 -20 83 -46 98 -59 16 -13 35 -24 44 -24 25 0 -87 82
-139 102 -77 29 -79 20 -3 -19z"/>
<path d="M7940 6630 c0 -5 5 -10 11 -10 5 0 7 5 4 10 -3 6 -8 10 -11 10 -2 0
-4 -4 -4 -10z"/>
<path d="M571 6603 c0 -12 -9 -27 -18 -32 -10 -6 -12 -11 -5 -11 6 0 12 -5 12
-11 0 -5 -4 -8 -9 -4 -12 7 -22 -10 -26 -43 -1 -15 -6 -40 -10 -56 l-8 -29 25
19 c20 14 29 35 38 84 7 36 10 74 7 85 -4 18 -5 18 -6 -2z"/>
<path d="M9074 6065 c-18 -13 -16 -14 22 -15 23 0 55 5 72 11 22 7 37 7 54 -1
22 -11 22 -10 4 4 -26 21 -125 21 -152 1z"/>
<path d="M7648 5883 c7 -3 16 -2 19 1 4 3 -2 6 -13 5 -11 0 -14 -3 -6 -6z"/>
<path d="M10137 5494 c-8 -8 60 -53 81 -54 6 0 12 5 12 11 0 5 -5 7 -11 3 -8
-4 -9 0 -4 15 5 16 2 21 -12 21 -10 0 -27 3 -38 6 -11 3 -24 2 -28 -2z"/>
<path d="M10954 4976 c11 -9 27 -16 35 -16 21 0 2 16 -29 24 -24 7 -24 6 -6
-8z"/>
<path d="M10880 4855 c0 -11 25 -27 62 -39 13 -4 17 0 15 14 -4 26 -8 29 -45
34 -20 2 -32 -1 -32 -9z"/>
<path d="M11450 4840 c8 -5 29 -9 45 -9 26 0 27 2 10 9 -11 5 -31 9 -45 9 -20
1 -22 -1 -10 -9z"/>
<path d="M11920 4700 c0 -14 49 -32 69 -27 11 3 9 5 -5 6 -12 0 -27 8 -34 16
-14 17 -30 20 -30 5z"/>
<path d="M11395 4680 c-4 -6 -2 -17 4 -24 14 -16 70 -26 77 -14 3 4 1 8 -4 8
-5 0 -12 9 -15 20 -6 22 -51 29 -62 10z"/>
<path d="M10712 4641 c-18 -11 22 -51 51 -51 18 0 23 6 23 24 0 14 -2 24 -5
24 -4 0 -8 0 -11 2 -19 7 -47 8 -58 1z"/>
<path d="M10252 4528 c-19 -19 -14 -34 13 -46 37 -17 53 -15 65 8 7 14 7 20 0
20 -5 0 -10 7 -10 15 0 18 -50 21 -68 3z"/>
<path d="M12390 4531 c0 -5 13 -14 29 -19 23 -8 32 -7 41 3 8 9 6 14 -6 19
-24 9 -64 7 -64 -3z"/>
<path d="M11860 4512 c0 -19 27 -42 58 -48 27 -6 32 -4 32 13 0 11 -11 25 -25
31 -30 14 -65 16 -65 4z"/>
<path d="M13171 4486 c19 -11 34 -13 55 -6 23 6 24 8 8 9 -12 1 -37 3 -55 7
l-34 5 26 -15z"/>
<path d="M11205 4456 c-25 -18 -13 -43 24 -51 36 -8 51 -1 51 24 0 38 -40 53
-75 27z"/>
<path d="M13245 4440 c3 -5 13 -10 21 -10 8 0 14 5 14 10 0 6 -9 10 -21 10
-11 0 -17 -4 -14 -10z"/>
<path d="M4570 4140 c12 -8 9 -10 -11 -10 -48 0 -48 -55 -1 -67 15 -3 36 0 51
8 49 28 34 79 -23 79 -24 0 -27 -3 -16 -10z"/>
<path d="M6616 3874 c-22 -21 -21 -71 2 -82 43 -22 111 36 86 75 -13 21 -44
26 -63 10 -12 -9 -13 -9 -7 1 10 17 1 15 -18 -4z m74 -10 c0 -2 -7 -4 -15 -4
-8 0 -15 4 -15 10 0 5 7 7 15 4 8 -4 15 -8 15 -10z"/>
<path d="M13010 3310 c0 -5 5 -10 10 -10 6 0 10 5 10 10 0 6 -4 10 -10 10 -5
0 -10 -4 -10 -10z"/>
<path d="M9590 2999 c0 -5 5 -7 10 -4 6 3 10 8 10 11 0 2 -4 4 -10 4 -5 0 -10
-5 -10 -11z"/>
<path d="M280 2990 c8 -5 20 -10 25 -10 6 0 3 5 -5 10 -8 5 -19 10 -25 10 -5
0 -3 -5 5 -10z"/>
<path d="M10060 2989 c0 -5 5 -7 10 -4 6 3 10 8 10 11 0 2 -4 4 -10 4 -5 0
-10 -5 -10 -11z"/>
<path d="M13830 2965 c-39 -47 -261 -137 -422 -170 -39 -9 -76 -19 -82 -24
-16 -12 -325 -66 -646 -112 -36 -5 -108 -19 -160 -30 -52 -12 -102 -22 -112
-23 -38 -5 -100 -42 -155 -93 -32 -30 -83 -66 -113 -80 -30 -15 -57 -29 -60
-32 -13 -15 -49 -27 -90 -30 -25 -2 -49 -6 -55 -9 -8 -5 -64 -17 -210 -43 -33
-5 -103 -14 -155 -19 -52 -5 -178 -18 -280 -29 -542 -57 -824 -66 -2085 -65
-1206 2 -1953 9 -2490 24 -192 5 -548 10 -790 10 -873 3 -2691 32 -3070 50
-110 5 -333 12 -496 15 -548 9 -886 33 -1275 90 -274 41 -535 98 -679 150 -55
20 -134 47 -175 61 -41 13 -81 32 -88 41 -11 15 -12 15 -12 -4 0 -11 -7 -37
-15 -58 -19 -43 -14 -64 24 -102 21 -20 30 -41 33 -75 6 -50 43 -99 86 -112
12 -4 22 -11 22 -15 0 -15 79 -91 95 -91 9 0 18 -7 21 -15 4 -8 17 -15 30 -15
14 0 27 -7 30 -15 4 -8 18 -15 34 -15 15 0 33 -7 40 -15 7 -8 27 -15 46 -15
20 0 37 -6 42 -16 6 -12 17 -15 32 -11 15 4 34 -1 52 -15 16 -11 38 -18 49
-15 20 5 79 -12 79 -24 0 -4 22 -6 49 -6 27 0 56 -5 64 -11 8 -7 34 -11 58
-10 27 1 54 -4 69 -14 18 -12 36 -14 65 -9 32 5 46 3 67 -13 23 -16 32 -18 53
-8 35 16 70 15 85 -3 7 -8 21 -15 31 -15 19 0 90 24 122 41 13 7 22 5 33 -6
21 -20 142 -20 191 0 44 18 40 19 46 -5 5 -18 14 -20 79 -20 55 0 81 5 106 20
41 25 41 25 52 -5 9 -24 14 -25 82 -25 57 0 78 5 98 20 32 25 60 26 60 1 0
-36 130 -45 173 -11 34 27 77 27 77 0 0 -18 7 -20 78 -20 66 0 82 3 97 20 26
29 63 26 75 -5 9 -23 14 -25 78 -25 56 0 72 4 87 20 25 28 85 28 85 0 0 -18 7
-20 80 -20 69 0 81 3 90 20 7 14 21 20 45 20 27 0 34 -4 37 -22 3 -21 9 -23
81 -26 72 -3 79 -1 84 18 4 16 13 20 49 20 37 0 44 -3 44 -20 0 -15 7 -20 28
-21 128 -4 124 -5 135 19 14 31 60 30 89 -3 19 -22 29 -25 91 -25 60 0 70 2
74 20 8 29 88 29 96 1 4 -16 16 -20 65 -23 77 -4 89 -1 95 23 7 28 87 28 87 0
0 -20 39 -31 113 -31 31 0 39 4 47 25 8 20 16 25 45 25 29 0 37 -5 45 -25 9
-23 14 -25 80 -25 66 0 70 1 76 25 5 21 12 25 44 25 32 0 39 -4 42 -22 3 -21
9 -23 74 -26 65 -3 71 -1 81 20 15 33 77 34 81 1 3 -21 8 -23 77 -23 70 0 73
1 79 26 6 22 11 25 44 22 30 -2 38 -7 40 -25 3 -22 8 -23 77 -23 65 0 74 2 80
20 5 16 15 20 46 20 32 0 39 -3 39 -20 0 -17 7 -20 43 -22 75 -2 102 3 118 24
21 26 73 22 77 -7 3 -18 10 -20 73 -20 61 0 73 3 89 23 25 30 67 30 72 0 3
-21 9 -23 73 -26 65 -3 73 -1 95 23 30 32 67 34 72 3 3 -21 9 -23 78 -26 69
-3 78 -1 98 21 27 29 72 26 72 -4 0 -17 8 -19 78 -19 66 0 82 3 97 20 25 28
63 26 67 -2 3 -21 9 -23 67 -26 53 -2 70 1 93 18 44 32 67 33 78 5 9 -23 14
-25 83 -25 61 0 77 3 92 20 25 27 75 27 75 0 0 -18 7 -20 78 -20 66 0 82 3 97
20 24 27 58 26 70 -2 9 -20 18 -23 81 -26 60 -2 73 0 89 18 25 27 75 27 75 0
0 -18 7 -20 76 -20 61 0 81 4 101 20 33 26 59 26 66 0 5 -18 14 -20 82 -20 61
0 83 4 105 20 30 22 57 18 62 -8 5 -26 133 -27 174 -1 41 25 70 24 77 -1 5
-18 13 -20 79 -20 57 0 78 5 98 20 32 25 60 25 67 0 5 -18 14 -20 83 -20 57 0
81 4 90 15 7 8 28 15 46 15 24 0 34 -5 34 -15 0 -22 158 -22 166 0 8 21 82 21
90 0 5 -11 24 -15 80 -15 57 0 76 4 80 15 4 10 20 15 49 15 34 0 44 -4 48 -20
4 -17 11 -19 78 -13 46 4 77 11 82 19 11 19 76 18 83 -1 5 -12 25 -15 90 -15
68 0 84 3 84 15 0 20 50 20 76 0 29 -22 170 -21 182 1 7 13 16 15 38 9 16 -4
69 -10 119 -12 75 -4 91 -2 101 12 12 16 16 16 58 0 52 -20 187 -18 194 3 2 8
21 10 62 5 56 -5 59 -5 53 15 -5 19 -3 20 20 9 14 -6 23 -15 21 -19 -8 -13 81
-12 100 0 6 3 60 6 120 6 61 1 117 5 124 10 8 4 62 9 120 10 59 1 113 5 120 9
6 5 59 10 116 12 57 1 113 8 124 14 11 6 51 11 89 11 37 0 86 5 108 10 22 6
77 12 123 15 46 2 100 9 120 14 39 10 191 26 206 22 6 -1 20 3 32 9 16 9 27 9
42 1 31 -16 56 -13 86 10 23 18 31 20 52 10 35 -16 52 -14 85 10 25 18 34 19
61 10 27 -10 37 -8 67 12 30 19 41 22 68 14 26 -8 38 -5 67 13 26 16 44 20 66
15 22 -5 40 -1 65 14 24 14 45 19 64 15 22 -5 39 0 61 16 22 15 40 21 59 17
18 -4 39 1 60 14 17 10 49 19 70 19 22 0 44 6 51 15 7 8 29 15 50 15 24 0 40
5 44 15 3 9 18 15 39 15 19 0 40 7 47 15 7 8 23 15 35 15 12 0 29 8 36 17 12
14 12 16 0 9 -9 -6 -12 -5 -9 5 3 10 17 13 45 11 30 -3 42 1 46 12 4 9 17 16
31 16 13 0 26 7 30 15 3 8 13 15 21 15 18 0 75 58 75 76 0 6 16 22 35 35 19
13 35 29 35 36 0 6 5 13 11 15 5 2 13 24 16 48 3 25 11 52 18 60 28 35 37 74
24 109 l-11 26 -13 -25 c-26 -45 -16 -2 10 47 29 53 27 85 -6 128 -24 29 -32
31 -49 10z m31 -32 c-9 -16 -10 -14 -11 12 0 21 3 26 11 18 8 -8 8 -16 0 -30z
m-21 -307 c0 -2 -8 -10 -17 -17 -16 -13 -17 -12 -4 4 13 16 21 21 21 13z
m-13690 -37 c0 -6 -4 -7 -10 -4 -5 3 -10 11 -10 16 0 6 5 7 10 4 6 -3 10 -11
10 -16z"/>
</g>
</svg>
