<?xml version="1.0" standalone="no"?>
<!DOCTYPE svg PUBLIC "-//W3C//DTD SVG 20010904//EN"
 "http://www.w3.org/TR/2001/REC-SVG-20010904/DTD/svg10.dtd">
<svg version="1.0" xmlns="http://www.w3.org/2000/svg"
 width="30.000000pt" height="30.000000pt" viewBox="0 0 552.000000 552.000000"
 preserveAspectRatio="xMidYMid meet">

<g transform="translate(0.000000,512.000000) scale(0.100000,-0.100000)"
fill="#000000" stroke="none">
<path d="M2452 4740 c-283 -39 -538 -242 -638 -506 -33 -87 -54 -197 -54 -279
l0 -63 -177 -4 c-149 -4 -189 -9 -248 -28 -158 -51 -288 -136 -388 -256 -66
-77 -137 -216 -162 -313 -34 -135 -32 -172 74 -1231 55 -553 107 -1033 115
-1068 37 -154 101 -267 216 -382 133 -132 283 -205 470 -230 59 -8 354 -10
955 -8 863 3 871 4 950 26 221 61 408 209 510 403 73 139 76 159 185 1251 55
554 100 1031 100 1060 0 87 -35 229 -77 319 -96 204 -257 347 -473 420 -90 31
-104 33 -272 37 l-178 4 0 62 c-1 135 -43 281 -118 411 -19 33 -76 101 -126
150 -79 79 -105 98 -196 142 -58 28 -134 58 -170 66 -85 20 -219 28 -298 17z
m259 -340 c63 -19 148 -72 196 -122 79 -82 133 -219 133 -337 l0 -51 -480 0
-480 0 0 51 c0 133 57 264 156 356 76 71 153 106 274 127 41 7 141 -5 201 -24z
m990 -850 c126 -38 225 -123 284 -244 68 -136 70 -84 -39 -1171 -53 -533 -101
-1001 -107 -1038 -15 -92 -68 -196 -135 -262 -64 -65 -174 -121 -264 -135 -88
-13 -1672 -13 -1760 0 -201 32 -367 197 -399 398 -26 160 -202 1980 -197 2037
7 83 31 148 82 226 61 93 144 155 254 190 51 17 131 18 1136 18 1048 1 1084 0
1145 -19z"/>
<path d="M1884 3250 c-88 -20 -124 -79 -124 -204 0 -429 326 -775 756 -803
317 -20 624 161 763 450 54 113 71 182 78 318 5 109 4 119 -18 158 -13 23 -38
51 -57 63 -45 28 -120 27 -165 -1 -57 -35 -70 -64 -78 -179 -4 -59 -16 -129
-29 -167 -88 -264 -401 -394 -655 -271 -170 82 -260 223 -272 426 -4 70 -11
105 -26 133 -34 61 -104 93 -173 77z"/>
</g>
</svg>