<?xml version="1.0" standalone="no"?>
<!DOCTYPE svg PUBLIC "-//W3C//DTD SVG 20010904//EN"
 "http://www.w3.org/TR/2001/REC-SVG-20010904/DTD/svg10.dtd">
<svg version="1.0" xmlns="http://www.w3.org/2000/svg"
 width="200.000000pt" height="90.000000pt" viewBox="0 0 1000.000000 900.000000"
 preserveAspectRatio="xMidYMid meet">

<g transform="translate(0.000000,900.000000) scale(0.100000,-0.100000)"
fill="#000000" stroke="none">
<path d="M4165 8850 c-420 -36 -839 -134 -1240 -289 -44 -17 -89 -36 -100 -41
-11 -5 -46 -20 -77 -34 -32 -14 -58 -28 -58 -30 0 -2 21 3 48 11 203 64 286
87 417 114 566 115 1150 87 1700 -82 225 -70 500 -192 735 -327 250 -144 543
-383 775 -632 327 -350 596 -780 769 -1228 114 -296 174 -538 236 -951 6 -40
13 -159 16 -265 3 -105 7 -200 9 -212 4 -19 214 -200 268 -231 20 -12 225 -96
347 -143 75 -29 324 -130 345 -140 11 -5 45 -19 75 -30 91 -35 110 -44 110
-56 0 -9 -357 -122 -472 -150 -16 -3 -28 -9 -27 -13 0 -3 68 -51 150 -105 82
-55 149 -104 149 -111 0 -6 -17 -17 -37 -24 -21 -7 -51 -19 -68 -27 -16 -7
-176 -72 -355 -143 -179 -71 -318 -132 -310 -135 8 -3 69 -14 135 -25 66 -11
201 -34 300 -51 99 -18 198 -35 220 -39 25 -4 40 -12 40 -21 0 -11 -48 -25
-197 -55 -109 -22 -198 -42 -198 -45 0 -3 84 -65 188 -138 238 -169 228 -160
216 -170 -5 -5 -36 -17 -69 -26 -33 -10 -123 -37 -200 -61 -77 -24 -150 -46
-163 -50 -26 -7 -19 -13 -276 231 -76 73 -135 137 -132 142 3 6 39 16 79 23
39 6 76 16 81 20 8 7 -32 28 -214 111 -25 11 -97 45 -160 75 -113 54 -165 65
-220 48 -8 -3 -60 -11 -115 -19 -55 -8 -165 -24 -244 -36 -169 -25 -135 -42
-273 140 -52 69 -144 191 -206 272 -62 81 -112 152 -112 157 0 21 29 10 176
-70 82 -45 178 -97 214 -117 36 -19 92 -50 126 -68 64 -35 88 -40 126 -25 13
5 73 21 133 35 596 137 519 110 809 286 86 52 155 98 154 101 -2 3 -92 84
-201 179 -123 109 -206 174 -220 174 -12 1 -85 49 -162 108 -126 96 -289 197
-622 389 -62 35 -113 70 -113 77 0 8 16 12 49 12 27 0 51 5 53 11 3 8 117 -5
362 -40 197 -29 360 -50 362 -48 2 1 -118 124 -265 271 l-269 269 -215 -13
-215 -12 -114 67 c-284 170 -421 263 -666 448 l-262 198 -118 34 c-64 18 -165
47 -223 64 l-106 31 -357 0 -356 0 -63 57 c-34 31 -116 107 -182 168 -66 61
-185 172 -265 245 -80 74 -174 162 -210 196 -93 89 -101 95 -240 161 -69 34
-209 102 -311 152 l-187 91 -188 200 c-104 110 -191 200 -194 200 -3 0 -49
-50 -103 -110 l-98 -111 22 -47 c12 -26 27 -56 32 -67 6 -11 -11 -2 -42 24
-30 25 -56 40 -61 35 -4 -5 -80 -136 -168 -291 l-160 -282 58 -158 c32 -87 81
-223 110 -303 29 -80 63 -174 76 -210 12 -36 48 -171 79 -300 32 -129 70 -287
85 -350 29 -119 55 -283 66 -429 l7 -84 -44 6 c-24 3 -82 13 -129 22 -86 16
-280 51 -358 65 -24 4 -47 11 -51 16 -5 5 -2 61 6 124 20 168 17 177 -33 104
-22 -32 -60 -87 -85 -122 l-44 -62 -60 6 c-115 12 -110 12 -108 -21 2 -16 7
-93 13 -170 16 -222 16 -222 53 -239 18 -8 131 -54 252 -101 121 -48 258 -107
305 -132 47 -25 130 -70 185 -99 55 -29 103 -61 106 -71 4 -10 31 -124 59
-253 29 -129 60 -266 69 -304 l17 -68 45 113 c25 62 49 114 55 116 8 3 32 -50
153 -338 l40 -97 -19 -218 c-11 -121 -22 -231 -25 -246 -2 -16 -3 -28 0 -28 2
0 39 37 83 82 48 49 83 78 90 74 8 -4 12 -38 12 -89 0 -45 5 -147 10 -227 11
-167 39 -677 42 -763 3 -70 12 -80 26 -29 14 52 90 326 108 390 9 28 21 52 27
52 8 0 35 -122 76 -343 34 -188 72 -389 83 -447 42 -230 23 -191 194 -390
l155 -179 62 -3 62 -3 5 -79 c3 -51 10 -81 18 -84 15 -5 16 -32 0 -32 -8 0 -9
-46 -4 -179 6 -165 5 -179 -11 -186 -10 -3 -85 -31 -168 -61 -82 -31 -185 -69
-228 -85 -73 -27 -97 -29 -97 -10 0 4 72 70 160 147 88 76 160 146 160 155 0
8 -6 35 -14 60 -8 24 -21 73 -30 109 l-17 65 -117 18 c-313 48 -665 157 -952
296 -394 190 -694 404 -1010 721 -571 573 -945 1315 -1069 2125 -30 194 -42
367 -42 590 0 309 26 561 87 833 14 63 24 116 21 118 -5 5 -80 -261 -102 -361
-73 -337 -107 -637 -107 -965 0 -269 14 -439 64 -740 31 -190 116 -529 158
-634 5 -12 23 -61 40 -111 107 -303 284 -648 486 -947 602 -890 1525 -1541
2549 -1798 231 -58 344 -78 620 -110 174 -21 457 -29 638 -19 163 9 492 43
525 54 7 3 43 10 80 15 246 39 670 169 937 288 1123 501 1967 1405 2380 2547
132 367 206 719 240 1145 34 422 3 825 -100 1293 -63 287 -195 650 -344 947
-275 547 -630 997 -1110 1407 -472 403 -1072 709 -1696 864 -161 41 -191 47
-240 54 -27 4 -66 11 -85 15 -19 5 -109 19 -200 30 -129 17 -232 22 -475 25
-170 2 -355 0 -410 -5z m145 -2726 c50 -14 184 -54 367 -110 l123 -37 103
-166 c181 -288 267 -428 273 -444 17 -45 -35 -12 -211 133 -108 89 -211 169
-228 179 -50 27 -146 58 -219 71 l-67 12 -41 67 c-22 36 -74 119 -115 184 -41
64 -75 122 -75 128 0 6 9 8 23 3 12 -4 42 -13 67 -20z m2662 -1730 c161 -108
297 -201 302 -205 35 -32 -95 -29 -443 7 -53 6 -63 5 -59 -7 4 -8 21 -49 39
-91 18 -43 29 -81 25 -85 -7 -7 -50 -6 -271 6 l-119 6 -104 209 c-79 161 -100
211 -90 217 7 5 58 23 113 40 55 17 145 46 200 64 55 19 103 34 107 34 4 1
139 -87 300 -195z"/>
</g>
</svg>